<svg width="180" height="65" xmlns="http://www.w3.org/2000/svg" version="1.0" preserveAspectRatio="xMidYMid meet" color-interpolation-filters="sRGB">
 <g>
  <title>Layer 1</title>
  <g fill="#144579" class="basesvg" id="svg_2" stroke="null">
   <g data-gra="path-name" class="tp-name" fill="#144579" id="svg_3" stroke="null">
    <g transform="translate(84.395 97.2188) scale(1 1)" fill="#144579" id="svg_4" stroke="null">
     <g fill="#144579" id="svg_5" stroke="null">
      <path d="m-64.35,-56.91l0,-37.09l7.38,0l0,37.09l5.98,0l0,3.52l-25.49,0q-1.58,0 -2.81,-1.41l0,0q-0.71,-0.88 -0.71,-2.11l0,0l0,-31.29l7.56,0l0,29.54q0,1.05 1.06,1.58l0,0q0.17,0.17 0.52,0.17l0,0l6.51,0zm14.76,3.52l0,-34.81l7.39,0l0,34.81l-7.39,0zm15.12,-36.21l0,-3.52l30.76,0q2.64,0 3.52,2.11l0,0q0.35,0.53 0.35,1.41l0,0l0,15.12l-34.63,0l0,-3.52l27.25,0l0,-9.84q0,-1.23 -1.23,-1.59l0,0q-0.18,-0.17 -0.36,-0.17l0,0l-25.66,0zm0.88,4.04l0,0l24.96,0l0,3.52l-24.96,0l0,-3.52q0,0 0,0zm13.01,19.34l0,-7.21l7.38,0q0,0 0,0l0,0l0,7.21q0.35,0.17 13.01,10.54l0,0q2.46,1.94 2.99,2.29l0,0l-10.02,0l-9.67,-7.74l-9.67,7.74l-10.02,0l0,0q0.7,-0.53 4.57,-3.52l0,0q0.53,-0.52 5.63,-4.74l0,0q5.8,-4.57 5.8,-4.57l0,0zm-12.66,-0.35l-2.64,-6.68l7.39,0q0,0.17 1.05,2.46l0,0q0,0.17 2.29,6.15l0,0l-7.39,0q0,0 -0.7,-1.93l0,0zm27.42,-6.68l7.38,0l-3.34,8.61l-7.38,0l3.34,-8.61zm14.06,-20.75l0,0l6.68,0l0,0l-0.52,1.41l13.18,0q0,0 0,0.18l0,0l0,3.51l-6.86,0l0,4.57l6.86,0l0,3.69l-3.87,0l0,0l3.87,7.21l0,0l-6.5,0q0,0 -0.88,-1.93l0,0q-0.18,-0.18 -2.46,-4.4l0,0q-0.18,-0.35 -0.36,-0.35l0,0q0,0.18 -3.51,6.68l0,0l-6.5,0l0,0l3.86,-7.21l-3.86,0l0,-3.69l6.85,0q0,0 0,0l0,0l0,-4.57l-7.38,0q1.4,-4.92 1.4,-5.1zm21.45,1.06l0,0l6.5,0l0,15.82l3.87,0l0,-10.55q0,-0.7 -0.53,-1.23l0,0q-0.52,-0.35 -1.05,-0.35l0,0l-1.06,0l0,-3.69l5.63,0q2.28,0 3.34,2.11l0,0q0.35,0.7 0.35,1.58l0,0l0,15.82l-17.05,0q0,0 0,0l0,0l0,-19.34q0,-0.17 0,-0.17zm-20.57,39.55l0,-19.16l7.39,0l0,7.91l20.56,0l0,-2.29q0,-1.4 -1.05,-1.75l0,0q-0.35,-0.18 -0.71,-0.18l0,0l-17.4,0l0,-3.69l23.03,0q1.76,0 2.81,1.58l0,0q0.71,0.88 0.71,2.11l0,0l0,15.47l-35.34,0zm27.95,-7.74l-20.56,0l0,4.22l20.56,0l0,-4.22zm30.24,-28.47l0,-3.69l17.4,0q1.93,0 2.99,1.75l0,0q0.52,0.88 0.52,1.41l0,0q0,0.53 -0.7,13.36l0,0l-0.17,0l-6.33,0q0,-0.7 0.7,-11.25l0,0q0,-1.05 -1.23,-1.41l0,0q-0.18,-0.17 -0.53,-0.17l0,0l-12.65,0zm-16.7,0.53l0,-3.52l15.99,0l0,3.52l-6.85,0q-2.11,9.31 -2.11,9.49l0,0l0,22.67l3.34,0l0,-19.16q0,-1.4 -1.41,-1.75l0,0q-0.35,0 -0.52,0l0,0l-0.18,0l0,-3.7l3.34,0q2.11,0 3.16,1.94l0,0q0.35,0.7 0.35,1.93l0,0l0,24.26l-13,0l0,-18.81l-2.46,0l0,0l3.69,-16.87l-3.34,0zm18.28,3.51l6.5,0l-0.88,10.02l13.36,0q1.59,0 2.82,1.41l0,0q0.52,1.05 0.52,1.93l0,0l0,11.6q0,3.34 -2.11,7.21l0,0l-6.68,0q1.06,-1.58 1.76,-3.52l0,0q0.53,-1.58 0.53,-4.39l0,0l0,-8.61q0,-1.59 -1.41,-1.94l0,0q-0.17,0 -0.35,0l0,0l-15.29,0q1.23,-13.53 1.23,-13.71l0,0zm-1.93,24.26l0,-3.69l15.46,0l0,3.69l-15.46,0z" fill="#144579" id="svg_6" stroke="null"/>
     </g>
     <!---->
     <!---->
     <!---->
     <!---->
     <!---->
     <!---->
     <!---->
    </g>
   </g>
   <g data-gra="path-slogan" class="tp-slogan" fill="#144579" id="svg_7" stroke="null">
    <rect x="9.39501" height="1" y="53.80375" width="31.35917" fill="#144579" id="svg_8" stroke="null"/>
    <rect height="1" y="53.80375" width="31.35917" x="139.24583" fill="#144579" id="svg_9" stroke="null"/>
    <g fill="#144579" id="svg_10" stroke="null">
     <g transform="translate(84.395 97.2188) scale(1 1)" fill="#144579" id="svg_11" stroke="null">
      <path d="m-34.03109,-44.6675l0,0l-1.08,0q-0.09,-1.64 -2.15,-1.74l0,0q-1.92,0.05 -1.92,1.5l0,0q0,0.94 1.03,1.08l0,0l2.43,0.56q1.93,0.47 1.93,2.35l0,0q-0.05,2.39 -3.38,2.48l0,0q-1.83,0 -2.58,-0.75l0,0q-0.93,-0.7 -0.89,-2.16l0,0l1.13,0q0.04,1.97 2.34,2.02l0,0q2.25,-0.05 2.3,-1.45l0,0q0.19,-1.18 -1.88,-1.55l0,0l-1.78,-0.38q-1.83,-0.51 -1.83,-2.06l0,0q0.14,-2.53 3,-2.62l0,0q3.24,0 3.33,2.72zm5.21,6.09l-3.47,0l0,-8.58l3.51,0q3.47,0.19 3.61,4.17l0,0q-0.19,4.32 -3.65,4.41l0,0zm-0.15,-7.64l-2.15,0l0,6.66l2.25,0q2.44,-0.15 2.53,-3.33l0,0q-0.05,-3.24 -2.63,-3.33l0,0zm10.93,4.45l0,-5.39l1.17,0l0,5.53q-0.14,3.1 -3.52,3.19l0,0q-3.14,-0.09 -3.28,-3l0,0l0,-5.72l1.17,0l0,5.39q0.05,2.35 2.16,2.39l0,0q2.3,-0.04 2.3,-2.39l0,0zm14.53,-5.39l0,8.58l-1.13,0l0,-5.06q0,-0.71 0,-2.16l0,0l-2.43,7.22l-1.18,0l-2.39,-7.22l-0.04,0q0,0.52 0.04,1.55l0,0q0,0.51 0,0.61l0,0l0,5.06l-1.17,0l0,-8.58l1.69,0l2.48,7.27l2.44,-7.27l1.69,0zm7.36,8.58l-0.85,-2.48l-3.47,0l-0.89,2.48l-1.17,0l3.24,-8.58l1.31,0l3.09,8.58l-1.26,0zm-2.58,-7.31l-1.36,3.79l2.67,0l-1.26,-3.79l-0.05,0zm11.3,3.7l-2.63,0l0,-0.98l3.75,0l0,4.59l-0.75,0l-0.28,-1.08q-0.98,1.17 -2.81,1.22l0,0q-1.74,0 -2.67,-0.89l0,0q-1.41,-1.31 -1.36,-3.61l0,0q0.32,-4.27 4.07,-4.45l0,0q3.19,0.18 3.66,2.81l0,0l-1.12,0q-0.47,-1.78 -2.58,-1.83l0,0q-2.67,0.19 -2.82,3.52l0,0q0,3.56 2.86,3.56l0,0q1.04,0 1.79,-0.56l0,0q0.93,-0.75 0.89,-2.3l0,0zm3.09,-4.97l1.17,0l0,8.58l-1.17,0l0,-8.58zm10.31,2.53l0,0l-1.12,0q-0.42,-1.73 -2.39,-1.78l0,0q-2.72,0.14 -2.82,3.47l0,0q0,3.56 2.86,3.56l0,0q1.97,-0.04 2.44,-2.39l0,0l1.13,0q-0.52,3.24 -3.8,3.33l0,0q-3.75,-0.14 -3.84,-4.45l0,0q0.18,-4.32 4.03,-4.5l0,0q3.04,0.09 3.51,2.76zm8.25,1.78l0,0q-0.19,-3.37 -3,-3.56l0,0q-2.86,0.14 -3,3.56l0,0q0.14,3.33 3,3.47l0,0q2.81,-0.18 3,-3.47zm1.17,0l0,0q-0.28,4.27 -4.17,4.41l0,0q-3.94,-0.14 -4.22,-4.41l0,0q0.24,-4.45 4.22,-4.54l0,0q3.89,0.14 4.17,4.54zm4.88,4.27l-3.47,0l0,-8.58l3.52,0q3.46,0.19 3.61,4.17l0,0q-0.19,4.32 -3.66,4.41l0,0zm-0.14,-7.64l-2.16,0l0,6.66l2.25,0q2.44,-0.15 2.53,-3.33l0,0q-0.04,-3.24 -2.62,-3.33l0,0zm6.56,6.61l5.16,0l0,1.03l-6.33,0l0,-8.58l6.23,0l0,0.99l-5.06,0l0,2.67l4.69,0l0,1.03l-4.69,0l0,2.86z" fill="#144579" id="svg_12" stroke="null"/>
     </g>
    </g>
   </g>
  </g>
 </g>

</svg>