<svg data-v-0dd9719b="" version="1.0" xmlns="http://www.w3.org/2000/svg" xmlns:xlink="http://www.w3.org/1999/xlink" width="1360" height="1000" viewBox="0 0 340.000000 250.000000" preserveAspectRatio="xMidYMid meet" color-interpolation-filters="sRGB" style="margin: auto;"> <rect data-v-0dd9719b="" x="0" y="0" width="100%" height="100%" fill="#FFFFFF" fill-opacity="0" class="background"></rect>  <g data-v-0dd9719b="" fill="#144579" class="basesvg" transform="translate(84.39500427246094,97.21875)"><g data-gra="path-name" fill-rule="" class="tp-name" transform="translate(0,0)" fill="#144579"><g transform="scale(1)" fill="#144579"><g fill="#144579"><path d="M17.23 1.93L17.23-35.16 24.61-35.16 24.61 1.93 30.59 1.93 30.59 5.45 5.1 5.45Q3.52 5.45 2.29 4.04L2.29 4.04Q1.58 3.16 1.58 1.93L1.58 1.93 1.58-29.36 9.14-29.36 9.14 0.18Q9.14 1.23 10.2 1.76L10.2 1.76Q10.37 1.93 10.72 1.93L10.72 1.93 17.23 1.93ZM31.99 5.45L31.99-29.36 39.38-29.36 39.38 5.45 31.99 5.45ZM47.11-30.76L47.11-34.28 77.87-34.28Q80.51-34.28 81.39-32.17L81.39-32.17Q81.74-31.64 81.74-30.76L81.74-30.76 81.74-15.64 47.11-15.64 47.11-19.16 74.36-19.16 74.36-29Q74.36-30.23 73.13-30.59L73.13-30.59Q72.95-30.76 72.77-30.76L72.77-30.76 47.11-30.76ZM47.99-26.72L47.99-26.72 72.95-26.72 72.95-23.2 47.99-23.2 47.99-26.72Q47.99-26.72 47.99-26.72ZM61-7.38L61-14.59 68.38-14.59Q68.38-14.59 68.38-14.59L68.38-14.59 68.38-7.38Q68.73-7.21 81.39 3.16L81.39 3.16Q83.85 5.1 84.38 5.45L84.38 5.45 74.36 5.45 64.69-2.29 55.02 5.45 45 5.45 45 5.45Q45.7 4.92 49.57 1.93L49.57 1.93Q50.1 1.41 55.2-2.81L55.2-2.81Q61-7.38 61-7.38L61-7.38ZM48.34-7.73L45.7-14.41 53.09-14.41Q53.09-14.24 54.14-11.95L54.14-11.95Q54.14-11.78 56.43-5.8L56.43-5.8 49.04-5.8Q49.04-5.8 48.34-7.73L48.34-7.73ZM75.76-14.41L83.14-14.41 79.8-5.8 72.42-5.8 75.76-14.41ZM89.82-35.16L89.82-35.16 96.5-35.16 96.5-35.16 95.98-33.75 109.16-33.75Q109.16-33.75 109.16-33.57L109.16-33.57 109.16-30.06 102.3-30.06 102.3-25.49 109.16-25.49 109.16-21.8 105.29-21.8 105.29-21.8 109.16-14.59 109.16-14.59 102.66-14.59Q102.66-14.59 101.78-16.52L101.78-16.52Q101.6-16.7 99.32-20.92L99.32-20.92Q99.14-21.27 98.96-21.27L98.96-21.27Q98.96-21.09 95.45-14.59L95.45-14.59 88.95-14.59 88.95-14.59 92.81-21.8 88.95-21.8 88.95-25.49 95.8-25.49Q95.8-25.49 95.8-25.49L95.8-25.49 95.8-30.06 88.42-30.06Q89.82-34.98 89.82-35.16ZM111.27-34.1L111.27-34.1 117.77-34.1 117.77-18.28 121.64-18.28 121.64-28.83Q121.64-29.53 121.11-30.06L121.11-30.06Q120.59-30.41 120.06-30.41L120.06-30.41 119-30.41 119-34.1 124.63-34.1Q126.91-34.1 127.97-31.99L127.97-31.99Q128.32-31.29 128.32-30.41L128.32-30.41 128.32-14.59 111.27-14.59Q111.27-14.59 111.27-14.59L111.27-14.59 111.27-33.93Q111.27-34.1 111.27-34.1ZM90.7 5.45L90.7-13.71 98.09-13.71 98.09-5.8 118.65-5.8 118.65-8.09Q118.65-9.49 117.6-9.84L117.6-9.84Q117.25-10.02 116.89-10.02L116.89-10.02 99.49-10.02 99.49-13.71 122.52-13.71Q124.28-13.71 125.33-12.13L125.33-12.13Q126.04-11.25 126.04-10.02L126.04-10.02 126.04 5.45 90.7 5.45ZM118.65-2.29L98.09-2.29 98.09 1.93 118.65 1.93 118.65-2.29ZM148.89-30.76L148.89-34.45 166.29-34.45Q168.22-34.45 169.28-32.7L169.28-32.7Q169.8-31.82 169.8-31.29L169.8-31.29Q169.8-30.76 169.1-17.93L169.1-17.93 168.93-17.93 162.6-17.93Q162.6-18.63 163.3-29.18L163.3-29.18Q163.3-30.23 162.07-30.59L162.07-30.59Q161.89-30.76 161.54-30.76L161.54-30.76 148.89-30.76ZM132.19-30.23L132.19-33.75 148.18-33.75 148.18-30.23 141.33-30.23Q139.22-20.92 139.22-20.74L139.22-20.74 139.22 1.93 142.56 1.93 142.56-17.23Q142.56-18.63 141.15-18.98L141.15-18.98Q140.8-18.98 140.63-18.98L140.63-18.98 140.45-18.98 140.45-22.68 143.79-22.68Q145.9-22.68 146.95-20.74L146.95-20.74Q147.3-20.04 147.3-18.81L147.3-18.81 147.3 5.45 134.3 5.45 134.3-13.36 131.84-13.36 131.84-13.36 135.53-30.23 132.19-30.23ZM150.47-26.72L156.97-26.72 156.09-16.7 169.45-16.7Q171.04-16.7 172.27-15.29L172.27-15.29Q172.79-14.24 172.79-13.36L172.79-13.36 172.79-1.76Q172.79 1.58 170.68 5.45L170.68 5.45 164 5.45Q165.06 3.87 165.76 1.93L165.76 1.93Q166.29 0.35 166.29-2.46L166.29-2.46 166.29-11.07Q166.29-12.66 164.88-13.01L164.88-13.01Q164.71-13.01 164.53-13.01L164.53-13.01 149.24-13.01Q150.47-26.54 150.47-26.72L150.47-26.72ZM148.54-2.46L148.54-6.15 164-6.15 164-2.46 148.54-2.46Z" transform="translate(-1.5799999237060547, 35.15999984741211)" fill="#144579"></path></g> <!----> <!----> <!----> <!----> <!----> <!----> <!----></g></g> <g data-gra="path-slogan" fill-rule="" class="tp-slogan" fill="#144579" transform="translate(5.000007629394531,46.61000061035156)"><rect x="0" height="1" y="3.9750003814697266" width="31.359169006347656" fill="#144579"></rect> <rect height="1" y="3.9750003814697266" width="31.359169006347656" x="129.85082244873047" fill="#144579"></rect> <g transform="translate(34.359169006347656,0)" fill="#144579"><g transform="scale(1)" fill="#144579"><path d="M7.17-6.09L7.17-6.09L6.09-6.09Q6-7.73 3.94-7.83L3.94-7.83Q2.02-7.78 2.02-6.33L2.02-6.33Q2.02-5.39 3.05-5.25L3.05-5.25L5.48-4.69Q7.41-4.22 7.41-2.34L7.41-2.34Q7.36 0.05 4.03 0.14L4.03 0.14Q2.20 0.14 1.45-0.61L1.45-0.61Q0.52-1.31 0.56-2.77L0.56-2.77L1.69-2.77Q1.73-0.80 4.03-0.75L4.03-0.75Q6.28-0.80 6.33-2.20L6.33-2.20Q6.52-3.38 4.45-3.75L4.45-3.75L2.67-4.13Q0.84-4.64 0.84-6.19L0.84-6.19Q0.98-8.72 3.84-8.81L3.84-8.81Q7.08-8.81 7.17-6.09ZM12.38 0L8.91 0L8.91-8.58L12.42-8.58Q15.89-8.39 16.03-4.41L16.03-4.41Q15.84-0.09 12.38 0L12.38 0ZM12.23-7.64L10.08-7.64L10.08-0.98L12.33-0.98Q14.77-1.13 14.86-4.31L14.86-4.31Q14.81-7.55 12.23-7.64L12.23-7.64ZM23.16-3.19L23.16-8.58L24.33-8.58L24.33-3.05Q24.19 0.05 20.81 0.14L20.81 0.14Q17.67 0.05 17.53-2.86L17.53-2.86L17.53-8.58L18.70-8.58L18.70-3.19Q18.75-0.84 20.86-0.80L20.86-0.80Q23.16-0.84 23.16-3.19L23.16-3.19ZM37.69-8.58L37.69 0L36.56 0L36.56-5.06Q36.56-5.77 36.56-7.22L36.56-7.22L34.13 0L32.95 0L30.56-7.22L30.52-7.22Q30.52-6.70 30.56-5.67L30.56-5.67Q30.56-5.16 30.56-5.06L30.56-5.06L30.56 0L29.39 0L29.39-8.58L31.08-8.58L33.56-1.31L36-8.58L37.69-8.58ZM45.05 0L44.20-2.48L40.73-2.48L39.84 0L38.67 0L41.91-8.58L43.22-8.58L46.31 0L45.05 0ZM42.47-7.31L41.11-3.52L43.78-3.52L42.52-7.31L42.47-7.31ZM53.77-3.61L51.14-3.61L51.14-4.59L54.89-4.59L54.89 0L54.14 0L53.86-1.08Q52.88 0.09 51.05 0.14L51.05 0.14Q49.31 0.14 48.38-0.75L48.38-0.75Q46.97-2.06 47.02-4.36L47.02-4.36Q47.34-8.63 51.09-8.81L51.09-8.81Q54.28-8.63 54.75-6L54.75-6L53.63-6Q53.16-7.78 51.05-7.83L51.05-7.83Q48.38-7.64 48.23-4.31L48.23-4.31Q48.23-0.75 51.09-0.75L51.09-0.75Q52.13-0.75 52.88-1.31L52.88-1.31Q53.81-2.06 53.77-3.61L53.77-3.61ZM56.86-8.58L58.03-8.58L58.03 0L56.86 0L56.86-8.58ZM67.17-6.05L67.17-6.05L66.05-6.05Q65.63-7.78 63.66-7.83L63.66-7.83Q60.94-7.69 60.84-4.36L60.84-4.36Q60.84-0.80 63.70-0.80L63.70-0.80Q65.67-0.84 66.14-3.19L66.14-3.19L67.27-3.19Q66.75 0.05 63.47 0.14L63.47 0.14Q59.72 0 59.63-4.31L59.63-4.31Q59.81-8.63 63.66-8.81L63.66-8.81Q66.70-8.72 67.17-6.05ZM75.42-4.27L75.42-4.27Q75.23-7.64 72.42-7.83L72.42-7.83Q69.56-7.69 69.42-4.27L69.42-4.27Q69.56-0.94 72.42-0.80L72.42-0.80Q75.23-0.98 75.42-4.27ZM76.59-4.27L76.59-4.27Q76.31 0 72.42 0.14L72.42 0.14Q68.48 0 68.20-4.27L68.20-4.27Q68.44-8.72 72.42-8.81L72.42-8.81Q76.31-8.67 76.59-4.27ZM81.47 0L78 0L78-8.58L81.52-8.58Q84.98-8.39 85.13-4.41L85.13-4.41Q84.94-0.09 81.47 0L81.47 0ZM81.33-7.64L79.17-7.64L79.17-0.98L81.42-0.98Q83.86-1.13 83.95-4.31L83.95-4.31Q83.91-7.55 81.33-7.64L81.33-7.64ZM87.89-1.03L93.05-1.03L93.05 0L86.72 0L86.72-8.58L92.95-8.58L92.95-7.59L87.89-7.59L87.89-4.92L92.58-4.92L92.58-3.89L87.89-3.89L87.89-1.03Z" transform="translate(-0.5602678571428572, 8.8125)" fill="#144579"></path></g></g></g></g><defs v-gra="od"></defs></svg>